rotated_Sprint_08100001_forces_filt5Hz.mot
version=1
nRows=33
nColumns=19
inDegrees=yes
endheader
time	R_ground_force_vx	R_ground_force_vy	R_ground_force_vz	R_ground_force_px	R_ground_force_py	R_ground_force_pz	R_ground_torque_x	R_ground_torque_y	R_ground_torque_z	L_ground_force_vx	L_ground_force_vy	L_ground_force_vz	L_ground_force_px	L_ground_force_py	L_ground_force_pz	L_ground_torque_x	L_ground_torque_y	L_ground_torque_z	
4.390500	  0.000000	  0.000000	  0.000000	  0.040675	  0.000000	 -0.501532	  0.000000	  0.000000	  0.000000	-56.395198	100.196661	 16.494977	  1.160439	  0.000000	 -0.163796	  0.000000	 -4.680548	  0.000000
4.391000	  0.000000	  0.000000	  0.000000	  0.042134	  0.000000	 -0.503927	  0.000000	  0.000000	  0.000000	-57.773859	106.475394	 16.748767	  1.159058	  0.000000	 -0.163361	  0.000000	 -4.747900	  0.000000
4.391500	  0.000000	  0.000000	  0.000000	  0.043593	  0.000000	 -0.506323	  0.000000	  0.000000	  0.000000	-59.153236	112.868774	 17.005773	  1.157677	  0.000000	 -0.162925	  0.000000	 -4.818163	  0.000000
4.392000	  0.000000	  0.000000	  0.000000	  0.045052	  0.000000	 -0.508718	  0.000000	  0.000000	  0.000000	-60.533218	119.376816	 17.265894	  1.156296	  0.000000	 -0.162490	  0.000000	 -4.891033	  0.000000
4.392500	  0.000000	  0.000000	  0.000000	  0.046511	  0.000000	 -0.511113	  0.000000	  0.000000	  0.000000	-61.913688	125.999527	 17.529030	  1.154914	  0.000000	 -0.162055	  0.000000	 -4.966250	  0.000000
4.393000	  0.000000	  0.000000	  0.000000	  0.047969	  0.000000	 -0.513508	  0.000000	  0.000000	  0.000000	-63.294528	132.736908	 17.795079	  1.153533	  0.000000	 -0.161620	  0.000000	 -5.043588	  0.000000
4.393500	  0.000000	  0.000000	  0.000000	  0.049428	  0.000000	 -0.515903	  0.000000	  0.000000	  0.000000	-64.675612	139.588952	 18.063935	  1.152152	  0.000000	 -0.161185	  0.000000	 -5.122849	  0.000000
4.394000	  0.000000	  0.000000	  0.000000	  0.050887	  0.000000	 -0.518299	  0.000000	  0.000000	  0.000000	-66.056814	146.555644	 18.335497	  1.150771	  0.000000	 -0.160749	  0.000000	 -5.203861	  0.000000
4.394500	  0.000000	  0.000000	  0.000000	  0.052346	  0.000000	 -0.520694	  0.000000	  0.000000	  0.000000	-67.438006	153.636959	 18.609658	  1.141325	 -0.000000	 -0.191486	  0.000000	 -5.286470	  0.000000
4.395000	  0.000000	  0.000000	  0.000000	  0.053805	  0.000000	 -0.523089	  0.000000	  0.000000	  0.000000	-68.819055	160.832866	 18.886317	  1.131880	 -0.000000	 -0.222223	  0.000000	 -5.370541	  0.000000
4.395500	  0.000000	  0.000000	  0.000000	  0.055504	  0.000000	 -0.525307	  0.000000	  0.000000	  0.000000	-70.199829	168.143322	 19.165370	  1.122434	 -0.000000	 -0.252959	  0.000000	 -5.455954	  0.000000
4.396000	  0.000000	  0.000000	  0.000000	  0.057202	  0.000000	 -0.527524	  0.000000	  0.000000	  0.000000	-71.580193	175.568275	 19.446715	  1.112988	 -0.000000	 -0.283696	  0.000000	 -5.542601	  0.000000
4.396500	  0.000000	  0.000000	  0.000000	  0.058900	  0.000000	 -0.529742	  0.000000	  0.000000	  0.000000	-72.960008	183.107664	 19.730251	  1.103542	  0.000000	 -0.314433	  0.000000	 -5.630384	  0.000000
4.397000	  0.000000	  0.000000	  0.000000	  0.060599	  0.000000	 -0.531960	  0.000000	  0.000000	  0.000000	-74.339137	190.761415	 20.015874	  1.094096	  0.000000	 -0.345169	  0.000000	 -5.719218	  0.000000
4.397500	  0.000000	  0.000000	  0.000000	  0.062297	  0.000000	 -0.534177	  0.000000	  0.000000	  0.000000	-75.717438	198.529445	 20.303486	  1.084650	  0.000000	 -0.375906	  0.000000	 -5.809026	  0.000000
4.398000	  0.000000	  0.000000	  0.000000	  0.063996	  0.000000	 -0.536395	  0.000000	  0.000000	  0.000000	-77.094771	206.411658	 20.592982	  1.075204	  0.000000	 -0.406643	  0.000000	 -5.899737	  0.000000
4.398500	  0.000000	  0.000000	  0.000000	  0.065695	  0.000000	 -0.538613	  0.000000	  0.000000	  0.000000	-78.470993	214.407947	 20.884264	  1.065759	  0.000000	 -0.437379	  0.000000	 -5.991291	  0.000000
4.399000	  0.000000	  0.000000	  0.000000	  0.067393	  0.000000	 -0.540831	  0.000000	  0.000000	  0.000000	-79.845961	222.518191	 21.177229	  1.060335	  0.000000	 -0.435175	  0.000000	 -6.083635	  0.000000
4.399500	  0.000000	  0.000000	  0.000000	  0.069091	  0.000000	 -0.543048	  0.000000	  0.000000	  0.000000	-81.219534	230.742257	 21.471778	  1.055147	  0.000000	 -0.433085	  0.000000	 -6.176723	  0.000000
4.400000	  0.000000	  0.000000	  0.000000	  0.070790	  0.000000	 -0.545266	  0.000000	  0.000000	  0.000000	-82.591569	239.079998	 21.767814	  1.050179	  0.000000	 -0.431100	  0.000000	 -6.270516	  0.000000
4.400500	  0.000000	  0.000000	  0.000000	  0.072636	  0.000000	 -0.547315	  0.000000	  0.000000	  0.000000	-83.961925	247.531254	 22.065242	  1.045416	  0.000000	 -0.429214	  0.000000	 -6.364982	  0.000000
4.401000	  0.000000	  0.000000	  0.000000	  0.074481	  0.000000	 -0.549364	  0.000000	  0.000000	  0.000000	-85.330463	256.095849	 22.363968	  1.040843	  0.000000	 -0.427419	  0.000000	 -6.460095	  0.000000
4.401500	  0.000000	  0.000000	  0.000000	  0.076327	  0.000000	 -0.551414	  0.000000	  0.000000	  0.000000	-86.697043	264.773593	 22.663905	  1.036450	  0.000000	 -0.425708	  0.000000	 -6.555837	  0.000000
4.402000	  0.000000	  0.000000	  0.000000	  0.078172	  0.000000	 -0.553463	  0.000000	  0.000000	  0.000000	-88.061525	273.564279	 22.964969	  1.032223	  0.000000	 -0.424077	  0.000000	 -6.652193	  0.000000
4.402500	  0.000000	  0.000000	  0.000000	  0.080018	  0.000000	 -0.555512	  0.000000	  0.000000	  0.000000	-89.423773	282.467685	 23.267080	  1.028153	  0.000000	 -0.422520	  0.000000	 -6.749155	  0.000000
4.403000	  0.000000	  0.000000	  0.000000	  0.081864	  0.000000	 -0.557561	  0.000000	  0.000000	  0.000000	-90.783646	291.483573	 23.570163	  1.024230	  0.000000	 -0.421032	  0.000000	 -6.846716	  0.000000
4.403500	  0.000000	  0.000000	  0.000000	  0.083709	  0.000000	 -0.559610	  0.000000	  0.000000	  0.000000	-92.141007	300.611686	 23.874148	  1.020445	  0.000000	 -0.419609	  0.000000	 -6.944878	  0.000000
4.404000	  0.000000	  0.000000	  0.000000	  0.085555	  0.000000	 -0.561660	  0.000000	  0.000000	  0.000000	-93.495717	309.851751	 24.178968	  1.016791	  0.000000	 -0.418247	  0.000000	 -7.043644	  0.000000
4.404500	  0.000000	  0.000000	  0.000000	  0.087400	  0.000000	 -0.563709	  0.000000	  0.000000	  0.000000	-94.847635	319.203475	 24.484563	  1.013260	  0.000000	 -0.416941	  0.000000	 -7.143019	  0.000000
4.405000	  0.000000	  0.000000	  0.000000	  0.089246	  0.000000	 -0.565758	  0.000000	  0.000000	  0.000000	-96.196623	328.666548	 24.790876	  1.009845	  0.000000	 -0.415690	  0.000000	 -7.243014	  0.000000
4.405500	  0.000000	  0.000000	  0.000000	  0.091233	  0.000000	 -0.567595	  0.000000	  0.000000	  0.000000	-97.542537	338.240639	 25.097852	  1.006539	  0.000000	 -0.414489	  0.000000	 -7.343642	  0.000000
4.406000	  0.000000	  0.000000	  0.000000	  0.093220	  0.000000	 -0.569433	  0.000000	  0.000000	  0.000000	-98.885237	347.925397	 25.405443	  1.003338	  0.000000	 -0.413335	  0.000000	 -7.444918	  0.000000
4.406500	  0.000000	  0.000000	  0.000000	  0.095208	  0.000000	 -0.571270	  0.000000	  0.000000	  0.000000	-100.224578	357.720452	 25.713601	  1.000235	  0.000000	 -0.412227	  0.000000	 -7.546860	  0.000000
